<svg id="Ebene_1" data-name="Ebene 1" xmlns="http://www.w3.org/2000/svg" viewBox="0 0 566.93 113.39"><defs><style>.cls-1{fill:#1a8fe5;}</style></defs><polygon points="235.54 78.15 235.54 61.23 217.3 61.23 217.3 78.15 207.82 78.15 207.82 35.91 217.3 35.91 217.3 52.83 235.54 52.83 235.54 35.91 245.02 35.91 245.02 78.15 235.54 78.15"/><path d="M283.09,57V35.91h9.5V67.73c0,3.47-.86,6.08-2.6,7.81s-4.33,2.61-7.79,2.61H265.57q-5.2,0-7.8-2.61c-1.73-1.73-2.6-4.34-2.6-7.81V35.91h9.5V66.42a2.9,2.9,0,0,0,3.27,3.27h11.88a2.9,2.9,0,0,0,3.27-3.27Z"/><polygon points="312.25 35.91 312.25 69.69 336.03 69.69 336.03 76.64 336.03 78.14 302.74 78.14 302.74 35.91 312.25 35.91"/><polygon points="347.36 78.15 347.36 44.43 334.04 44.43 334.04 35.91 370.28 35.91 370.28 44.43 356.84 44.43 356.84 78.15 347.36 78.15"/><polygon points="388.91 35.91 388.91 52.8 407.04 52.8 407.04 35.91 416.56 35.91 416.56 78.15 407.04 78.15 407.04 61.25 388.91 61.25 388.91 78.15 379.4 78.15 379.4 76.66 379.4 37.4 379.4 35.91 388.91 35.91"/><polygon points="426.64 78.15 426.64 35.91 460.48 35.91 460.48 44.43 436.12 44.43 436.12 52.47 455.2 52.47 455.2 60.99 436.12 60.99 436.12 69.75 460.48 69.75 460.48 78.15 426.64 78.15"/><path d="M198,78.14H179.25c-1.47,0-3.18-.08-5.11-.25a14.8,14.8,0,0,1-5.68-1.72A10.73,10.73,0,0,1,164,71.56a19.38,19.38,0,0,1-2.09-7.15,71.08,71.08,0,0,1-.42-7.36,71.42,71.42,0,0,1,.42-7.37A19.54,19.54,0,0,1,164,42.5a10.87,10.87,0,0,1,4.45-4.62,14.8,14.8,0,0,1,5.68-1.72c1.93-.17,3.64-.25,5.11-.25H198v8.47H179.31a17.82,17.82,0,0,0-2.66.23,5.55,5.55,0,0,0-2.75,1.3A6.65,6.65,0,0,0,172,49a16.55,16.55,0,0,0-.82,4.32c-.1,1.55-.15,2.52-.15,3.76s.05,2.23.15,3.77a16.24,16.24,0,0,0,.82,4.3,6.61,6.61,0,0,0,2,3,5.64,5.64,0,0,0,2.75,1.3,17.82,17.82,0,0,0,2.66.23H198Z"/><path d="M147.78,55.56c-.4-.16-17.75-4.85-17.75-4.85a3.79,3.79,0,0,1-1.44-.69l0,0c-.1-.08-.33-.31-.35-.33a3.16,3.16,0,0,1,2-5.26c.12,0,.23,0,.35,0h21.35V35.91H130.28a11.37,11.37,0,0,0-3.38,22.23h0l.45.12.38.11.54.14,2.59.69,3.24.88.42.11,3.07.82c1.17.31,6.49,2,7,2.13l.53.2h0a3.28,3.28,0,0,1,2,2.94v.17a3.29,3.29,0,0,1-3.24,3.2H119.5v8.47h24.7a11.58,11.58,0,0,0,3.58-22.59Z"/><path d="M496.76,55.56c-.4-.16-17.75-4.85-17.75-4.85a3.79,3.79,0,0,1-1.44-.69l0,0c-.1-.08-.33-.31-.35-.33a3.16,3.16,0,0,1,2-5.26c.12,0,.23,0,.35,0H500.9V35.91H479.26a11.37,11.37,0,0,0-3.38,22.23h0l.45.12.38.11.55.14,2.58.69,3.25.88.42.11,3.06.82c1.17.31,6.49,2,7,2.13l.53.2h0a3.28,3.28,0,0,1,2,2.94v.17a3.28,3.28,0,0,1-3.24,3.2H468.48v8.47h24.7a11.58,11.58,0,0,0,3.58-22.59Z"/><path d="M539.33,55.56c-.41-.16-17.76-4.85-17.76-4.85a3.79,3.79,0,0,1-1.44-.69l0,0c-.1-.08-.33-.31-.35-.33a3.16,3.16,0,0,1,2-5.26c.12,0,.23,0,.35,0h21.35V35.91H521.82a11.38,11.38,0,0,0-3.38,22.23h0l.45.12.38.11.55.14,2.58.69,3.25.88.42.11,3.06.82c1.17.31,6.49,2,7,2.13l.53.2h0a3.28,3.28,0,0,1,2,2.94v.17a3.28,3.28,0,0,1-3.24,3.2H511v8.47h24.7a11.58,11.58,0,0,0,3.59-22.59Z"/><path class="cls-1" d="M27.53,83.48l.11.14.11.14.12.14L28,84l.13.13.14.12.14.11.14.11a45.72,45.72,0,0,0,52.91,0l.15-.1.14-.12.14-.12L82,84l.13-.13.11-.14.12-.13.11-.15a45.81,45.81,0,0,0,8.29-23.27A21.92,21.92,0,0,1,56,62.67c-2.77-3-3.88-7.19-7.16-9.77a17.23,17.23,0,0,0-18-2.81c-8.44,3.71-11.36,11.66-9.92,19.57.12.41.24.83.37,1.24A45.75,45.75,0,0,0,27.53,83.48Z"/><path class="cls-1" d="M49.68,47.59c7.49,4.5,7.83,13.75,16.75,16.66,12.16,4.78,25-6.27,23-18.57-.22-.85-.46-1.7-.73-2.55a45.55,45.55,0,0,0-6.25-12.56l-.11-.15-.12-.14-.11-.14-.07-.06c-.47-.38-1-.75-1.44-1.1A46.08,46.08,0,0,0,68.9,23.27a45.76,45.76,0,0,0-40.35,6.24l-.14.1-.14.12-.14.12L28,30l-.13.13-.12.14-.11.14-.11.15a45.61,45.61,0,0,0-6.28,12.58A46.32,46.32,0,0,0,19.2,53.86C25.47,43.85,40,40.84,49.68,47.59Z"/></svg>